<?xml version="1.0" encoding="utf-8"?>
<!-- Generator: Adobe Illustrator 24.1.0, SVG Export Plug-In . SVG Version: 6.00 Build 0)  -->
<svg version="1.1" id="Layer_1" xmlns="http://www.w3.org/2000/svg" xmlns:xlink="http://www.w3.org/1999/xlink" x="0px" y="0px"
	 viewBox="0 0 715 91" style="enable-background:new 0 0 715 91;" xml:space="preserve">
<style type="text/css">
	.st0{fill:#334177;}
	.st1{fill:#129ACE;}
	.st2{fill:#B15246;}
	.st3{fill:#555555;}
</style>
<g>
	<g>
		<path class="st0" d="M13.1,54.9c1.2-0.4,2.2-0.7,3.2-1.1c0.2-0.1,0.5-0.5,0.5-0.7c-0.4-1.9-0.8-3.8-1.2-5.8
			c-1.5,0.1-2.9,0.2-4.3,0.3c-0.5-3.2-0.5-6.4,0-9.7c1.2,0.1,2.4,0.1,3.5,0.3c0.7,0.1,0.9-0.1,1-0.7c0.3-1.8,0.7-3.6,1.1-5.5
			c-1.2-0.4-2.4-0.8-3.7-1.2c1.1-2.8,2.6-5.4,4.4-7.9c3.4,2.9,6.8,5.7,10.3,8.5c-4.2,5.1-5.9,10.9-4.7,17.4
			c0.9,5.1,3.6,9.3,7.8,12.5c7.6,5.9,18.8,5.3,26.1-1.2c6.9-6.2,9.9-18.7,1.6-28.7c3.4-2.8,6.8-5.6,10.2-8.5c1.9,2.4,3.3,5,4.5,7.8
			c-1.3,0.4-2.4,0.8-3.7,1.3c0.4,2,0.8,3.9,1.2,5.8c0,0.2,0.6,0.4,0.9,0.4c1.2,0,2.3-0.2,3.5-0.3c0.5,3.3,0.5,6.4,0,9.7
			c-1.4-0.1-2.9-0.2-4.4-0.3c-0.4,2.1-0.8,4.1-1.3,6.3c1.2,0.4,2.4,0.8,3.8,1.3c-1.2,2.2-2.3,4.2-3.5,6.4c0.4,0,0.9,0,1.3,0
			c2.3-0.1,4.5,0.3,6.5,1.2c0.4,0.2,0.8,0.6,0.9,1c2.5,7.9,5,15.8,7.5,23.7c0.1,0.2,0.1,0.5,0.2,0.8c-0.8,0.3-1.6,0.5-2.4,0.8
			c-0.9,0.5-1.8,1.1-2.7,1.6c-0.3,0.2-0.8,0.3-1.2,0.2c-4.3-1.8-8.8-3.2-13.4-3.8c-3.4-0.5-6.8-0.6-10.2,0.5c-2,0.6-3.7,1.6-5.1,3.2
			c-0.2,0.3-0.8,0.4-1.1,0.4c-1.3-0.1-2.6-0.2-3.9-0.3c-3.3-0.4-6.6,0-9.8,0.4c-0.8,0.1-1.3,0-1.9-0.7c-1.9-2.2-4.4-3.1-7.2-3.4
			c-6.2-0.8-12,0.6-17.8,2.5c-1.2,0.4-2.3,0.9-3.4,1.3c-0.3,0.1-0.7,0.2-0.8,0c-1.6-1.3-3.3-2.1-5.4-2.6C0.6,86,1.3,84,1.9,82
			c1.9-6.1,3.9-12.2,5.8-18.4c0.2-0.6,0.5-0.9,1-1.1c2.5-1,5.1-1.3,7.9-1.1C15.5,59.2,14.4,57.1,13.1,54.9z M6.3,86.8
			c0.6-0.2,1-0.4,1.4-0.5c6.1-2.3,12.4-4.1,19-4.3c5-0.1,9.7,0.6,13.8,3.6c0.9,0.7,1.8,1.4,2.7,2.2c0.9-0.7,1.8-1.5,2.7-2.2
			c4.9-3.4,10.5-3.9,16.2-3.4c4.7,0.4,9.2,1.6,13.6,3.1c1.4,0.5,2.9,1,4.4,1.5C80,86.4,80,86.2,79.9,86c-2-7.3-4.1-14.5-6.1-21.8
			c-0.3-1.1-0.9-1.6-1.9-1.7c-0.7-0.1-1.4-0.1-2.2-0.2c-0.6-0.1-1,0.2-1.4,0.6c-1.4,1.5-2.7,3.1-4.3,4.4c-7.2,6-15.5,8.6-24.8,7.5
			c-8.5-1-15.4-4.9-20.9-11.4c-0.8-1-1.7-1.3-2.8-1.1c-0.6,0.1-1.2,0.2-1.9,0.3s-0.9,0.5-1.1,1.1c-1.4,4.9-2.8,9.9-4.1,14.8
			C7.8,81.3,7.1,84,6.3,86.8z"/>
		<path class="st0" d="M43,27.8c0,11,0,21.9,0,33c-1.8-0.7-3.5-1.3-5.2-2.1c-0.2-0.1-0.3-0.6-0.3-0.9c0-5.7,0-11.5,0-17.2
			c0-3.2,0-6.5,0-9.8c0-0.6,0.2-0.9,0.7-1.1C39.7,29.1,41.3,28.5,43,27.8z"/>
		<path class="st1" d="M43.7,27.8c0,11,0,21.9,0,33c1.8-0.7,3.5-1.3,5.2-2.1c0.2-0.1,0.3-0.6,0.3-0.9c0-5.7,0-11.5,0-17.2
			c0-3.2,0-6.5,0-9.8c0-0.6-0.2-0.9-0.7-1.1C46.9,29.1,45.4,28.5,43.7,27.8z"/>
		<path class="st2" d="M45.9,1.4c0.9-0.4,1.7-1.1,2.7-1.3c1.2-0.2,2.2,0.4,2.3,1.8c0.2,1.6,0.1,3.2,0,4.9c-0.2,2.1-0.6,1.6,1.4,2.4
			c1.4,0.5,2.8,1.2,4,2c1.7,1.2,1.6,2.9-0.1,4.1c-0.9,0.6-1.9,1-2.8,1.4c0.7-0.4,1.4-0.8,2-1.2c1.7-1.2,1.8-2.8-0.1-3.9
			c-1.3-0.8-2.9-1.2-4.3-1.8c-0.4-0.2-0.7,0-1,0.4c-0.8,1.7-1.2,3.5-0.2,5.3c0.1,0.1,0.1,0.3,0.1,0.4c0.1,1,0.6,1.4,1.6,1.1
			c-0.2,0.1-0.5,0.1-0.7,0.2c-0.6,0.2-0.6,0.6-0.2,0.9c0.7,0.4,0.6,0.8,0.2,1.5c-0.2,0.3-0.1,0.8-0.1,1.2c-0.1,1.1,0,2.2-0.3,3.2
			c-0.4,1.6-1.7,2.3-3.2,1.5c-1.2-0.6-2.3-1.6-3.4-2.4c-0.3-0.2-0.4-0.6-0.7-1c-0.9,0.8-1.5,1.4-2.2,1.9c-1,0.6-2.1,1.3-3.3,1.6
			c-1.1,0.3-1.9-0.3-2.2-1.4c-0.6-1.7-0.6-3.4,0.1-5.1c0,1.3-0.2,2.6-0.1,3.8c0.2,1.7,1.5,2.4,3,1.5c1.1-0.6,2-1.5,3-2.2
			c0.7-0.5,0.7-1,0.1-1.6c-0.4-0.5-0.7-1-1-1.6c-0.4-0.8-1-1.4-2.1-1.3c-0.4,0-0.9-0.2-1.3-0.3c0.8,0.1,1.5,0.1,2.4,0.2
			c-0.7-1.5-1.4-2.8-2-4.2c-0.4,0.7-0.7,1.2-1.1,1.8c0.2-0.6,0.5-1.2,0.7-1.8c0.1-0.3,0.1-0.7,0.1-1c-0.2-0.8-0.5-1.7-0.8-2.5
			c-0.1-0.2-0.5-0.5-0.7-0.5c-1.6,0.5-3.2,0.9-4.7,1.7c-1.8,1-1.8,2.6,0,3.8c0.7,0.5,1.4,0.8,2.1,1.2c-1.4-0.4-2.6-1-3.6-2.1
			c-0.9-1.1-0.9-2.1,0.1-3.1c1.3-1.3,3-1.9,4.8-2.3c1.5-0.4,1.4-0.4,1.3-1.8c-0.1-1.5-0.3-3-0.1-4.4c0.3-2.4,1.9-3.1,4-1.9
			c0.4,0.2,0.8,0.7,1.2,1c-0.3-0.3-0.7-0.6-1.1-0.7c-1.4-0.6-2.5-0.1-2.9,1.4C36.3,4,36.6,5.8,37,7.6c0,0.2,0.4,0.5,0.6,0.4
			c1.3-0.1,2.9,0.1,3.5-1.5c0-0.1,0.2-0.2,0.3-0.3c-0.2,0.5-0.4,0.9-0.7,1.6c1.8,0,3.5,0,5.2,0c-0.1-0.2-0.2-0.4-0.2-0.6
			c0.1,0,0.2,0.1,0.2,0.1c0.8,1.1,2,0.7,3.1,0.9c0.1,0,0.5-0.2,0.5-0.4c0.4-1.8,0.9-3.6,0.4-5.5c-0.4-1.5-1.3-2-2.8-1.5
			C46.8,1,46.3,1.2,45.9,1.4L45.9,1.4z M47.4,9.9c-0.4-0.3-0.8-0.8-1.3-0.8C44.5,8.9,43,9,41.4,8.9c-1.2-0.1-2,0.3-2.4,1.5
			c-0.3,0.7-0.9,1.3-0.5,2.1c0.8,1.6,1.6,3.2,2.4,4.8c0.1,0.2,0.3,0.4,0.4,0.4c1.1,0.1,2.3,0.1,3.4,0.1c0.2,0,0.5-0.3,0.6-0.5
			c0.6-0.9,1.1-1.9,1.6-2.9c0.8-1.4,1.4-2.8,0.3-4.3C47.3,10,47.3,9.9,47.4,9.9c0.3,0.5,0.6,0.9,1,1.6c0.2-0.7,0.4-1.3,0.7-2
			c-0.6-0.1-1.2-0.2-1.7-0.3C47.3,9.5,47.4,9.7,47.4,9.9z M50.3,17.6c-1.4,0.1-2.5,0.2-3.6,0.4c-0.3,0-0.6,0.2-0.7,0.5
			c-0.6,0.8-1.2,1.7-1.8,2.6c-0.1,0.2-0.2,0.7,0,0.9c1.1,1,2.1,2,3.4,2.8c1.2,0.8,2.5,0.2,2.8-1.1c0.3-1,0.5-2.3,0.1-3.2
			C50.2,19.4,49.8,18.7,50.3,17.6z M46.5,17.8c1.3-0.2,2.4-0.3,3.7-0.5c-0.5-1.4-0.8-2.5-1.3-3.9C48,15,47.3,16.3,46.5,17.8z
			 M43.1,20.6c0.6-0.9,1.1-1.6,1.7-2.5c-1.3,0-2.3,0-3.4,0C42,19,42.5,19.7,43.1,20.6z M38.2,11.5c0.5-0.9,0.8-1.6,1.3-2.5
			c-0.8,0.1-1.3,0.2-2,0.2C37.7,10,37.9,10.6,38.2,11.5z"/>
		<path class="st2" d="M42.4,5c0-0.6,1-0.9,0.5-1.7c0.5,0.1,0.9,0.1,0.9-0.6s0.3-0.9,1-0.9c0.4,0,0.7-0.2,1.1-0.4l0,0
			c-0.2,0.4-0.4,0.9-0.6,1.3c-0.2,0.2-0.5,0.5-0.7,0.6c-0.9,0.2-1,0.3-0.5,1.1C43.1,3.8,42.9,4.7,42.4,5z"/>
		<path class="st2" d="M33.2,16.2c0.2,0,0.4-0.1,0.6-0.2c0.5-0.3,0.9-0.2,1.2,0.3c0.1,0.2,0.4,0.4,0.6,0.6c-0.1,0-0.2,0-0.3,0
			C34.4,17.6,33.6,17.3,33.2,16.2z"/>
		<path class="st0" d="M40.3,12.9c0-1.6,1.3-2.9,2.9-2.9c1.6,0,2.9,1.4,2.9,3s-1.4,2.9-2.9,2.9C41.6,15.8,40.3,14.5,40.3,12.9z"/>
	</g>
	<g>
		<path class="st3" d="M108,79.6l-5.9-16.3h2.2l4.8,13.7h0.2l4.8-13.7h2.2l-6.2,16.3H108z"/>
		<path class="st3" d="M119,79.6V63.3h2.1v16.3H119z"/>
		<path class="st3" d="M135.2,79.6h-10.1V63.3h10.1v1.8h-8v5.3h7.7v1.8h-7.7v5.6h8.1v1.8C135.3,79.6,135.2,79.6,135.2,79.6z"/>
		<path class="st3" d="M143.2,79.6V65.1H138v-1.8h12.6v1.8h-5.3v14.5H143.2z"/>
		<path class="st3" d="M164.3,79.6V65.1H159v-1.8h12.6v1.8h-5.3v14.5H164.3z"/>
		<path class="st3" d="M176.8,79.6h-2.1V63.3h6.2c3.1,0,5.1,1.9,5.1,4.9c0,2.3-1.3,4-3.3,4.7l3.8,6.7h-2.2l-3.5-6.5h-4V79.6
			L176.8,79.6z M176.8,71.4h4c2.1,0,3.3-1.1,3.3-3.1s-1.3-3.1-3.3-3.1h-3.9L176.8,71.4L176.8,71.4z"/>
		<path class="st3" d="M189.9,79.6V63.3h2.1v16.3H189.9z"/>
		<path class="st3" d="M204.8,73.9c0,2.5,1.6,4.2,4.5,4.2s4.5-1.8,4.5-4.2V63.3h2.1V74c0,3.5-2.4,5.9-6.5,5.9s-6.5-2.5-6.5-5.9V63.3
			h2.1v10.6H204.8z"/>
		<path class="st3" d="M219.9,79.6V63.3h1.9l8.8,12.7h0.2V63.3h2.1v16.3H231l-9-12.7h-0.2v12.7H219.9z"/>
		<path class="st3" d="M237,79.6V63.3h2.1v16.3C239,79.6,237,79.6,237,79.6z"/>
		<path class="st3" d="M248,79.6l-6.1-16.3h2.2l4.8,13.7h0.2l4.8-13.7h2.2L250,79.6H248z"/>
		<path class="st3" d="M269,79.6h-10.1V63.3H269v1.8h-8.1v5.3h7.7v1.8h-7.7v5.6h8.1V79.6z"/>
		<path class="st3" d="M274.7,79.6h-2.1V63.3h6.2c3.1,0,5.1,1.9,5.1,4.9c0,2.3-1.3,4-3.3,4.7l3.8,6.7H282l-3.5-6.5h-4L274.7,79.6
			L274.7,79.6z M274.7,71.4h4c2.1,0,3.3-1.1,3.3-3.1s-1.3-3.1-3.3-3.1h-4.1L274.7,71.4L274.7,71.4z"/>
		<path class="st3" d="M289,75.4c0.2,1.7,1.8,2.7,4.2,2.7c2.2,0,3.8-1.1,3.8-2.9c0-1.4-1-2.3-3.3-2.9l-2.1-0.6
			c-3-0.8-4.2-2.1-4.2-4.3c0-2.7,2.3-4.7,5.7-4.7c3.2,0,5.5,1.8,5.7,4.6h-2.1c-0.2-1.7-1.7-2.6-3.7-2.6c-2.2,0-3.7,1-3.7,2.7
			c0,1.3,0.9,2.1,3.1,2.6l1.7,0.5c3.4,0.8,4.7,2.2,4.7,4.6c0,3-2.4,4.9-6.1,4.9c-3.4,0-5.8-1.8-6.1-4.7L289,75.4L289,75.4z"/>
		<path class="st3" d="M302.4,79.6V63.3h2.1v16.3H302.4z"/>
		<path class="st3" d="M312.9,79.6V65.1h-5.3v-1.8h12.6v1.8H315v14.5H312.9z"/>
		<path class="st3" d="M327.8,79.6v-7l-5.8-9.3h2.3l4.3,7.2h0.2l4.3-7.2h2.3l-5.8,9.3v7H327.8z"/>
		<path class="st3" d="M359.3,71.4c0,5.3-2.9,8.6-7.4,8.6c-4.7,0-7.5-3.3-7.5-8.6c0-5.3,2.9-8.6,7.5-8.6
			C356.6,62.9,359.3,66.3,359.3,71.4z M346.5,71.4c0,4,2.1,6.6,5.4,6.6s5.4-2.6,5.4-6.6c0-4.1-2.1-6.6-5.4-6.6
			S346.5,67.4,346.5,71.4z"/>
		<path class="st3" d="M362.9,79.6V63.3h9.9v1.8h-7.9v5.6h7.2v1.8h-7.2v7.1H362.9L362.9,79.6z"/>
		<path class="st3" d="M382.6,79.6V63.3h2.1v16.3H382.6z"/>
		<path class="st3" d="M388.9,79.6V63.3h1.9l8.8,12.7h0.2V63.3h2.1v16.3H400l-8.9-12.7h-0.2v12.7C390.8,79.6,388.9,79.6,388.9,79.6z
			"/>
		<path class="st3" d="M411.6,63.3c4.8,0,7.7,3,7.7,8.1s-2.9,8.1-7.7,8.1H406V63.3H411.6z M408.1,77.8h3.4c3.7,0,5.7-2.3,5.7-6.3
			s-2.2-6.3-5.7-6.3h-3.4V77.8z"/>
		<path class="st3" d="M424.9,73.9c0,2.5,1.6,4.2,4.5,4.2s4.5-1.8,4.5-4.2V63.3h2.1V74c0,3.5-2.4,5.9-6.5,5.9c-4,0-6.5-2.5-6.5-5.9
			V63.3h2.1L424.9,73.9L424.9,73.9z"/>
		<path class="st3" d="M441.3,75.4c0.2,1.7,1.8,2.7,4.2,2.7c2.2,0,3.8-1.1,3.8-2.9c0-1.4-1-2.3-3.3-2.9l-2.1-0.6
			c-3-0.8-4.2-2.1-4.2-4.3c0-2.7,2.3-4.7,5.7-4.7c3.2,0,5.5,1.8,5.7,4.6H449c-0.2-1.7-1.7-2.6-3.7-2.6c-2.2,0-3.7,1-3.7,2.7
			c0,1.3,0.9,2.1,3.1,2.6l1.7,0.5c3.4,0.8,4.7,2.2,4.7,4.6c0,3-2.4,4.9-6.1,4.9c-3.4,0-5.8-1.8-6.1-4.7L441.3,75.4L441.3,75.4z"/>
		<path class="st3" d="M459,79.6V65.1h-5.3v-1.8h12.6v1.8H461v14.5H459z"/>
		<path class="st3" d="M471.5,79.6h-2.1V63.3h6.2c3.1,0,5.1,1.9,5.1,4.9c0,2.3-1.3,4-3.3,4.7l3.8,6.7H479l-3.5-6.5h-4V79.6
			L471.5,79.6z M471.5,71.4h4c2.1,0,3.3-1.1,3.3-3.1s-1.3-3.1-3.3-3.1h-3.9L471.5,71.4L471.5,71.4z"/>
		<path class="st3" d="M488.6,79.6v-7l-5.8-9.3h2.3l4.3,7.2h0.2l4.3-7.2h2.3l-5.8,9.3v7H488.6z"/>
		<path class="st3" d="M508.8,81.1c-1.9-2.4-3.1-6.1-3.1-9.9c0-3.9,0.9-6.6,3.2-9.5h1.6c-1.6,1.9-2.9,5.8-2.9,9.5
			c0,3.5,0.8,6.5,2.7,9.9H508.8z"/>
		<path class="st3" d="M518.8,79.6l-6.1-16.3h2.2l4.8,13.7h0.2l4.8-13.7h2.2l-6.1,16.3H518.8z"/>
		<path class="st3" d="M531.8,73.9c0,2.5,1.6,4.2,4.5,4.2s4.5-1.8,4.5-4.2V63.3h2.1V74c0,3.5-2.4,5.9-6.5,5.9c-4,0-6.5-2.5-6.5-5.9
			V63.3h2.1L531.8,73.9L531.8,73.9z"/>
		<path class="st3" d="M546.9,79.6V63.3h2.1v16.3C548.9,79.6,546.9,79.6,546.9,79.6z"/>
		<path class="st3" d="M555.2,71.3c0-3.7-1.1-7.7-2.7-9.5h1.6c2.2,2.9,3.2,5.6,3.2,9.5s-1.1,7.4-3.1,9.9h-1.7
			C554.3,77.8,555.2,74.8,555.2,71.3z"/>
	</g>
	<g>
		<path class="st3" d="M107.3,46.8V29.6h-6.2v-3.7H118v3.7h-6.3v17.2C111.7,46.8,107.3,46.8,107.3,46.8z"/>
		<path class="st3" d="M126,46.8h-4.4V25.9h8.8c4.6,0,7.4,2.6,7.4,6.7c0,2.7-1.4,5-3.8,5.9l4.4,8.3h-5l-3.9-7.6h-3.6v7.6H126z
			 M126,35.9h3.8c2.2,0,3.5-1.2,3.5-3.2s-1.4-3.2-3.5-3.2H126V35.9z"/>
		<path class="st3" d="M160.7,26.8c0.8-0.1,1-0.6,1-1.7v-2.4h3.4v3.2c0,2.6-1.5,4.1-3.9,4.1c-0.4,0-1.5-0.1-1.7-0.3v9.9
			c0,4.7-3.5,7.8-8.8,7.8s-8.8-3.1-8.8-7.8V25.9h4.4v13.3c0,2.7,1.7,4.3,4.4,4.3s4.4-1.6,4.4-4.3V25.9h4.4v0.7
			C159.9,26.8,160.3,26.9,160.7,26.8z"/>
		<path class="st3" d="M175.8,47.4c-6.2,0-10.1-4.2-10.1-11c0-6.7,3.9-11,10-11c4.3,0,5.7,2,7.4,2c0.9,0,1.3-0.6,1.3-1.8v-2.7h3.4
			V27c0,2-1,3.2-2.6,3.2c-0.2,0-0.5-0.1-0.6-0.1l-0.2,0.2c0.9,1.7,1.5,3.8,1.5,6.2C185.8,43.2,181.9,47.4,175.8,47.4z M177.9,23.8
			h-4l-4.6-4.6h4.6L177.9,23.8z M170.2,36.4c0,4.4,2.2,7.2,5.6,7.2c3.4,0,5.6-2.8,5.6-7.2s-2.2-7.2-5.6-7.2S170.2,32,170.2,36.4z"/>
		<path class="st3" d="M190.8,46.8V25.9h3.7l9.6,13h0.3v-13h4.2v20.9H205l-9.7-13.1H195v13.1C195,46.8,190.8,46.8,190.8,46.8z"/>
		<path class="st3" d="M222.4,47.4c-6.2,0-10-4.2-10-11c0-6.7,3.8-11,9.9-11c4.9,0,8.6,2.9,9.2,7.2h-4.4c-0.7-2.1-2.4-3.4-4.8-3.4
			c-3.4,0-5.5,2.7-5.5,7.1c0,4.5,2.2,7.2,5.6,7.2c2.9,0,4.9-1.7,4.9-4.2v-0.4h-4.5v-3.3h8.8v2.7C231.7,43.9,228.2,47.4,222.4,47.4z"
			/>
		<path class="st3" d="M251.2,25.9c6.2,0,9.8,3.8,9.8,10.3c0,6.8-3.6,10.6-9.8,10.6H243v-9h-1.8v-3.3h1.8v-8.6
			C243,25.9,251.2,25.9,251.2,25.9z M250.5,43.1c3.9,0,6-2.4,6-6.8c0-4.2-2.2-6.7-6-6.7h-3.2v4.9h3.2v3.4h-3.2v5.2
			C247.3,43.1,250.5,43.1,250.5,43.1z"/>
		<path class="st3" d="M275.6,41.8h-7.4l-1.6,5h-4.4l7.3-20.9h5.1l7.3,20.9h-4.8L275.6,41.8z M269.1,38.5h5.5l-2.6-8.2h-0.3
			L269.1,38.5z M269.6,50.9c0-1.2,0.9-2,2.3-2s2.3,0.9,2.3,2c0,1.2-0.9,2-2.3,2S269.6,52.1,269.6,50.9z"/>
		<path class="st3" d="M285.2,46.8V25.9h4.4v20.9H285.2z"/>
		<path class="st3" d="M315.5,46.8v-8.7h-9.4v8.7h-4.4V25.9h4.4v8.4h9.4v-8.4h4.4v20.9H315.5z"/>
		<path class="st3" d="M343.8,36.4c0,6.8-3.9,11-10.1,11s-10.1-4.2-10.1-11s3.9-11,10.1-11C340,25.4,343.8,29.6,343.8,36.4z
			 M328.2,36.4c0,4.4,2.2,7.2,5.6,7.2s5.6-2.8,5.6-7.2s-2.2-7.2-5.6-7.2C330.4,29.2,328.2,32,328.2,36.4z M331.5,50.9
			c0-1.2,0.9-2,2.3-2s2.3,0.9,2.3,2c0,1.2-0.9,2-2.3,2S331.5,52.1,331.5,50.9z"/>
		<path class="st3" d="M346.8,36.4c0-6.8,3.7-11,9.8-11c5,0,8.8,3.3,9.1,7.8h-4.3c-0.4-2.4-2.3-4-4.8-4c-3.3,0-5.3,2.7-5.3,7.1
			s2,7.2,5.4,7.2c2.5,0,4.4-1.5,4.8-3.8h4.3c-0.4,4.5-4,7.6-9.1,7.6C350.5,47.4,346.8,43.2,346.8,36.4z"/>
		<path class="st3" d="M375.9,36.4c0-6.8,3.7-11,9.8-11c5,0,8.8,3.3,9.1,7.8h-4.3c-0.4-2.4-2.3-4-4.8-4c-3.3,0-5.3,2.7-5.3,7.1
			s2,7.2,5.4,7.2c2.5,0,4.4-1.5,4.8-3.8h4.3c-0.4,4.5-4,7.6-9.1,7.6C379.6,47.4,375.9,43.2,375.9,36.4z"/>
		<path class="st3" d="M417.7,36.4c0,6.8-3.9,11-10.1,11s-10.1-4.2-10.1-11s3.9-11,10.1-11S417.7,29.6,417.7,36.4z M413.8,23.8H410
			l-2.1-2.7h-0.3l-2.1,2.7h-3.8l4.1-4.9h3.9L413.8,23.8z M402.1,36.4c0,4.4,2.2,7.2,5.6,7.2s5.6-2.8,5.6-7.2s-2.2-7.2-5.6-7.2
			S402.1,32,402.1,36.4z"/>
		<path class="st3" d="M421.6,46.8V25.9h3.7l9.6,13h0.3v-13h4.2v20.9h-3.6l-9.7-13.1h-0.3v13.1C425.8,46.8,421.6,46.8,421.6,46.8z"
			/>
		<path class="st3" d="M453.2,47.4c-6.2,0-10-4.2-10-11c0-6.7,3.8-11,9.9-11c4.9,0,8.6,2.9,9.2,7.2h-4.4c-0.7-2.1-2.4-3.4-4.8-3.4
			c-3.4,0-5.5,2.7-5.5,7.1c0,4.5,2.2,7.2,5.6,7.2c2.9,0,4.9-1.7,4.9-4.2v-0.4h-4.5v-3.3h8.8v2.7C462.5,43.9,458.9,47.4,453.2,47.4z"
			/>
		<path class="st3" d="M473.7,46.8V25.9h3.7l9.6,13h0.3v-13h4.2v20.9h-3.6l-9.7-13.1h-0.3v13.1C477.9,46.8,473.7,46.8,473.7,46.8z"
			/>
		<path class="st3" d="M505.4,47.4c-6.2,0-10-4.2-10-11c0-6.7,3.8-11,9.9-11c4.9,0,8.6,2.9,9.2,7.2h-4.4c-0.7-2.1-2.4-3.4-4.8-3.4
			c-3.4,0-5.5,2.7-5.5,7.1c0,4.5,2.2,7.2,5.6,7.2c2.9,0,4.9-1.7,4.9-4.2v-0.4h-4.5v-3.3h8.8v2.7C514.6,43.9,511.1,47.4,505.4,47.4z"
			/>
		<path class="st3" d="M532.3,46.8v-8.7h-9.4v8.7h-4.4V25.9h4.4v8.4h9.4v-8.4h4.4v20.9H532.3z"/>
		<path class="st3" d="M541.5,46.8V25.9h4.4v20.9H541.5z"/>
		<path class="st3" d="M564.5,46.8h-13.9V25.9h13.9v3.7H555v4.9h9V38h-9v5.1h9.5V46.8z M563.7,23.8h-3.8l-2.1-2.7h-0.3l-2.1,2.7
			h-3.8l4.1-4.9h3.9L563.7,23.8z M555.3,50.9c0-1.2,0.9-2,2.3-2c1.4,0,2.3,0.9,2.3,2c0,1.2-0.9,2-2.3,2S555.3,52.1,555.3,50.9z"/>
		<path class="st3" d="M577.6,25.9c4.3,0,7.3,2.9,7.3,7.2s-3.1,7.2-7.5,7.2h-4.1v6.5h-4.4V25.9H577.6z M573.2,36.8h3.2
			c2.5,0,4-1.3,4-3.6c0-2.4-1.4-3.7-4-3.7h-3.2V36.8z"/>
		<path class="st3" d="M601.5,46.8l-7.1-20.9h4.9l4.8,16h0.3l4.7-16h4.7l-7,20.9C606.8,46.8,601.5,46.8,601.5,46.8z"/>
		<path class="st3" d="M617.1,46.8V25.9h4.4v20.9H617.1z"/>
		<path class="st3" d="M640.1,46.8h-13.9V25.9h13.9v3.7h-9.5v4.9h8.9V38h-8.9v5.1h9.5V46.8z M639.2,23.8h-3.8l-2.1-2.7H633l-2.1,2.7
			h-3.8l4.1-4.9h3.9L639.2,23.8z M630.9,50.9c0-1.2,0.9-2,2.3-2c1.4,0,2.3,0.9,2.3,2c0,1.2-0.9,2-2.3,2S630.9,52.1,630.9,50.9z"/>
		<path class="st3" d="M649.5,46.8V29.6h-6.3v-3.7h16.9v3.7h-6.3v17.2C653.8,46.8,649.5,46.8,649.5,46.8z"/>
		<path class="st3" d="M676.2,46.8V29.6h-6.3v-3.7h16.9v3.7h-6.3v17.2C680.5,46.8,676.2,46.8,676.2,46.8z"/>
		<path class="st3" d="M694.8,46.8h-4.4V25.9h8.8c4.6,0,7.4,2.6,7.4,6.7c0,2.7-1.4,5-3.8,5.9l4.4,8.3h-5l-3.9-7.6h-3.6L694.8,46.8
			L694.8,46.8z M694.8,35.9h3.8c2.2,0,3.5-1.2,3.5-3.2s-1.4-3.2-3.5-3.2h-3.8V35.9z"/>
		<path class="st3" d="M715.1,23.8h-4l-4.6-4.6h4.6L715.1,23.8z M710.7,46.8V25.9h4.4v20.9H710.7z"/>
	</g>
</g>
</svg>
